PathFileType	4	(X/Y/Z)	path1_05_0-945.trc
DataRate	CameraRate	NumFrames	NumMarkers	Units	OrigDataRate	OrigDataStartFrame	OrigNumFrames
30	30	9	22	m	30	354	945
Frame#	Time	Hip			RHip			RKnee			RAnkle			RBigToe			RSmallToe			RHeel			LHip			LKnee			LAnkle			LBigToe			LSmallToe			LHeel			Neck			Head			Nose			RShoulder			RElbow			RWrist			LShoulder			LElbow			LWrist		
		X1	Y1	Z1	X2	Y2	Z2	X3	Y3	Z3	X4	Y4	Z4	X5	Y5	Z5	X6	Y6	Z6	X7	Y7	Z7	X8	Y8	Z8	X9	Y9	Z9	X10	Y10	Z10	X11	Y11	Z11	X12	Y12	Z12	X13	Y13	Z13	X14	Y14	Z14	X15	Y15	Z15	X16	Y16	Z16	X17	Y17	Z17	X18	Y18	Z18	X19	Y19	Z19	X20	Y20	Z20	X21	Y21	Z21	X22	Y22	Z22
355	11.833333333333334	-1.6840228639525905	0.8168479175034156	0.2578800533019942	-1.6879372680117164	0.7973540271470306	0.3406502440605748	-1.703509170709694	0.46880409690055513	0.3063709319860796	-1.7246717391363835	0.11957263973272753	0.3137988131513092	-1.5675741741928235	0.031582549906000366	0.33246742527199613	-1.5936189312395517	0.03233790126604791	0.3915199158866272	-1.7598564933197371	0.061886048272904275	0.3138803683827496	-1.6724892147032928	0.7924994699153881	0.1876062222167613	-1.6940109983769893	0.45474281025939384	0.2122360554864358	-1.725308948953643	0.09711423794239603	0.15142925939210597	-1.549908796729708	0.012805988154709853	0.13520245171598255	-1.5577385109664885	0.0258224109637402	0.10147068407238602	-1.7701700989929168	0.03369128428524663	0.15769472812050592	-1.6771414300626128	1.4530571265678067	0.22039448573793094	-1.6142240392181546	1.7195779561478344	0.2724782718542367	-1.5406881375577464	1.5987036521917912	0.27294354698129636	-1.7400024621992765	1.354507635347115	0.365756211177835	-1.720683275365543	1.0544459361304275	0.4004786478258233	-1.6281752192815717	0.8573041164454317	0.4683981319909041	-1.70305263012618	1.3511963801439346	0.04714369879332049	-1.700808164508887	1.0404530618151933	0.11061198242052833	-1.6116143331103594	0.8582729080169194	0.06124143083889795
356	11.866666666666667	-1.6847453672518635	0.8173533301875895	0.2578461326375494	-1.688927781544096	0.7947395886113382	0.3392006700893687	-1.7036865835950301	0.4681510956830384	0.30532054042933016	-1.7243583975518473	0.11780348651379896	0.312774458925279	-1.5686293468354866	0.03143928892536216	0.3324231193028934	-1.5948137313361679	0.03206051737039227	0.39146866336502456	-1.7587944966087214	0.06136481438603363	0.31304386040550036	-1.6708987289395076	0.7904978216070796	0.18710887595644302	-1.6932774910428163	0.4533273929805433	0.21098804317146888	-1.7017086169057336	0.10284871661265028	0.17694527612543906	-1.53289570827474	0.017858648226179986	0.1539046163259104	-1.5558983668767192	0.027384349443870533	0.1016351702797605	-1.7714617725314878	0.034493232996686184	0.1555915170115483	-1.6767282340224536	1.4536768459749088	0.2208381826119455	-1.6160888950350183	1.716388247965178	0.27287292974599175	-1.5400981693549924	1.5980460974506299	0.276056036105085	-1.7406680733140931	1.3545344447799552	0.36553332020607837	-1.7214584324010571	1.0535058376777013	0.4012242548081855	-1.6280035023312025	0.8570244192588833	0.46859939773904485	-1.700736597338449	1.3501474976881742	0.04815020842223582	-1.6981948803658011	1.0393439100219286	0.109904747333569	-1.61196372956009	0.8586808441070513	0.060439172669095896
357	11.9	-1.6869096261083991	0.8159629446667475	0.2569304253281055	-1.6893087177628656	0.7959227044752197	0.3380005875877111	-1.703698278406447	0.4685187556294112	0.30420975834725056	-1.7244736648462777	0.11815016465378336	0.3122949265969858	-1.5670021174208846	0.034177294076436986	0.33548211840183045	-1.595267787232008	0.03564798561209813	0.39363452277122224	-1.7604631543631493	0.059705801196683624	0.313537627894346	-1.6733437025016942	0.7925988385467176	0.1846159075887369	-1.6933820610384738	0.45486956877395085	0.2089733679441118	-1.7257912184847644	0.09827775723066276	0.15043885462569787	-1.54939347671592	0.013401362420867268	0.133254819444694	-1.557965885923925	0.026883095749911295	0.10082496829231284	-1.7720582260059548	0.034706868451378936	0.1535706306885238	-1.6777645269257706	1.4519087623294067	0.22164464632058928	-1.6116032106338347	1.7200547827964905	0.27120328182275966	-1.5411934174068855	1.5970721596981459	0.27609889548093514	-1.740666393489711	1.3537392901041954	0.36541310181513026	-1.7219280638669547	1.053558255443234	0.4012759660064681	-1.6271800355420838	0.8564789668170061	0.4688519505451759	-1.703252665910323	1.3519451282097446	0.04710808557590297	-1.6998743701940366	1.0402071290629178	0.11005283906302227	-1.6119296389075919	0.8595900666402754	0.06319617345905029
358	11.933333333333334	-1.683839019671739	0.8180295006046334	0.25700946783587797	-1.6908247449005784	0.7937203432616098	0.33303946826616976	-1.70518419167233	0.4692132960207702	0.3010544875363297	-1.7233568672870765	0.1203215926823733	0.3123950367351742	-1.5673671194786625	0.03151753862602268	0.3315978274373399	-1.594907725646309	0.03574850535084318	0.3930004196798751	-1.7592994880000261	0.06059158443884889	0.31547974759852415	-1.6725831405969764	0.7917209504966624	0.18190813695350272	-1.6936407443216874	0.4555730217510266	0.20842710770713932	-1.7267567364924523	0.09749573645628375	0.14733131325395535	-1.5314823691241957	0.02025476055172608	0.15266120226569524	-1.5556386629759655	0.027175761904974814	0.10121651102878548	-1.7728175025245787	0.03544924950466827	0.1529060420364316	-1.6779560830701794	1.4531447487173448	0.22365148250181316	-1.614419580877026	1.7175800260179288	0.26506704471711917	-1.542404847486516	1.5971354230544708	0.28746247640855455	-1.7408555319223464	1.3547427794112656	0.3662381102896531	-1.7227981730520034	1.0536205267645806	0.3994141890012481	-1.6268890102756937	0.8566495282864379	0.46875456963007645	-1.7021992569089586	1.3519064887221635	0.047042649085593975	-1.6988665591857375	1.042143355780884	0.10986740868686705	-1.612389494124483	0.8599761031515563	0.061961773752285135
359	11.966666666666667	-1.684218938402105	0.8177564526592453	0.2572020295311167	-1.6881723127659143	0.8026262787381377	0.3400611018912512	-1.701586688134891	0.47256188229832624	0.304806861954369	-1.7230022341517337	0.12000669793668844	0.31377601428502516	-1.568197471556694	0.030722793052488175	0.3304994987018972	-1.5957520203536504	0.033526256897769384	0.3893869979537621	-1.7569901247030317	0.06133213824010731	0.3147349573825424	-1.6728284844480876	0.7973225629279563	0.18841558938797617	-1.6677613708178083	0.4456687237829467	0.17807432262500786	-1.7252796079632655	0.09856803048348374	0.1504182568004567	-1.5317999895903311	0.019864526303310853	0.15092092173913763	-1.555988374656155	0.02670173259647288	0.0996949595930167	-1.7702174003211106	0.03779507177470373	0.15655788678535315	-1.6784905243845107	1.4514305384458945	0.22296773627454614	-1.6075182602826723	1.7225570889574604	0.2715855877955009	-1.541371909496764	1.5927366449195393	0.2717320429152706	-1.7397213509777931	1.3559906635903498	0.36526618621834095	-1.7220839096099705	1.0553359942242078	0.39759188925300826	-1.626885718700448	0.8554982803585269	0.4681106912342762	-1.7019355370381413	1.3521750208355474	0.04725614780327335	-1.7000609881590716	1.0429968055814507	0.10937904915213832	-1.6105528615649438	0.8597802807511228	0.06280750034996292
360	12.0	-1.6877427317074236	0.816108618316212	0.25745539789802	-1.6887889565936287	0.7998825567492824	0.33976419089255255	-1.7046030716464822	0.47200828391858934	0.3051598635634206	-1.7245637425533589	0.12004173626554618	0.31259891590322675	-1.5676279382560578	0.03457620725288203	0.33513232220189176	-1.5949559606233796	0.03563754426026345	0.39212940237890864	-1.7617003523510657	0.06235044850746481	0.3122162830618127	-1.672121412330084	0.7945294742112539	0.1878827864165162	-1.6651279349797845	0.44695450695563843	0.17883742899525207	-1.702621937482987	0.10329668494934731	0.17531460924573053	-1.5304460775897106	0.01743610274243404	0.15295751893935228	-1.5538548507936516	0.02676414629740777	0.10187283385294751	-1.7734263437489097	0.03647116580112131	0.15409273844870577	-1.6786479026137011	1.4516738686863238	0.2233950021744471	-1.6064144472733861	1.7213654242771086	0.26622457447240777	-1.5414937663398212	1.5912144254900031	0.2665749929514652	-1.7410709749853654	1.3559849025887214	0.36581815661091216	-1.7221676582917613	1.0524272911885943	0.39798830445169114	-1.6272151561228383	0.8555461189099646	0.46819564572338596	-1.7020171147415495	1.3523279874049963	0.048319214251536596	-1.7004143731134282	1.0422980335754877	0.11126533279950755	-1.6117226944589427	0.8599204550710624	0.06272584252868675
361	12.033333333333333	-1.6802786137101264	0.8170803102480831	0.25678141192859005	-1.6872051770740455	0.7863526449876486	0.3362094731251614	-1.7065315272971355	0.46520401618179574	0.30344568207054445	-1.7245298554183326	0.11942479144708988	0.3110176094147302	-1.5676227002266414	0.030183296612829598	0.33105642891259	-1.5943819606003888	0.03509594833750545	0.39298327921131715	-1.7613790434519023	0.06312394397181585	0.3124338093460345	-1.6724204774044744	0.7815411246222379	0.1898216862594258	-1.6967797825092443	0.44806408249210955	0.21457597803995526	-1.7037116976507067	0.10364901288652331	0.17697014261093502	-1.5499975010707279	0.0027295019897268565	0.16332154801743334	-1.5576804965058209	0.024674982976071038	0.10286455984869201	-1.7735121942815855	0.03559933519261916	0.15969221160031358	-1.6752421201935435	1.455968908055471	0.222685952514756	-1.62416241837141	1.7109924239676373	0.27180330846297324	-1.5413126465410762	1.5981797436775795	0.286514016670485	-1.7412806861622427	1.3552335463542393	0.36408987398291476	-1.7194193508422593	1.055335391857423	0.397189567706672	-1.6283570820683197	0.8562549988961963	0.4674562490927058	-1.7038799671982432	1.332611907262445	0.13964656073415535	-1.6974522876319629	1.0408924991856605	0.11154415740824168	-1.6136887948056708	0.8599524524089136	0.06333713775663265
362	12.066666666666666	-1.679702398879068	0.8194761859434717	0.25744778491682374	-1.6885909626108444	0.7870820108517392	0.33686779478598894	-1.7100501312387018	0.46371410615783043	0.29896548292938174	-1.7260828333758682	0.1178431772642813	0.3105189201682604	-1.5673268032991492	0.031636761050025004	0.3335502775412785	-1.594925301492379	0.0371316221577781	0.394198722610005	-1.7635034704117623	0.06212194178580884	0.3081020473874264	-1.6699781221356715	0.7824300433617035	0.188543286556944	-1.6956879653463293	0.4488097653786684	0.21232283344294997	-1.7021950470573373	0.10225923737006735	0.1782168508516836	-1.5476356846102022	0.004123529570153432	0.14094402071523793	-1.5553511606414663	0.023414018726000477	0.10308727797717628	-1.7510378759847482	0.033957698394524824	0.18162828083523422	-1.6740528579822245	1.4562562505718921	0.2254295448847706	-1.6254698690668694	1.7089731287969825	0.25669560585205525	-1.5393519936929627	1.5969484646170904	0.2691845675966873	-1.7402308992887197	1.3543755738660894	0.366234754727397	-1.7183586429339905	1.0543804180426637	0.4004344055345214	-1.6283017311332406	0.857354752852445	0.4679694040838958	-1.7043245273688348	1.3340340219611986	0.13895140101000134	-1.6996477855376733	1.0420699675758647	0.11327565907367383	-1.6130884369177052	0.8598277098749342	0.0628218430420656
363	12.1	-1.6789061670960357	0.8195859000818373	0.2572455839000273	-1.6880000806702893	0.7874233624966268	0.33709628690959553	-1.708313141022722	0.46434134384741993	0.2999171516345087	-1.7241315182305386	0.12188266592675463	0.31186068911259696	-1.5678874927164155	0.030502268089119933	0.3319483929143426	-1.5950812083439485	0.03734535581062556	0.3940998217660146	-1.7607663686987989	0.0632127679387391	0.3109827627209991	-1.670998248386462	0.7826193528818796	0.1879533796648949	-1.695807311882687	0.4503937834113374	0.21318008243459247	-1.7017514378655325	0.1021194601541981	0.1793891726723545	-1.5477552312899732	0.0038555346515080457	0.13966730520671708	-1.5554557941326987	0.024477959241192154	0.103536325886754	-1.77133653213388	0.02993434220261908	0.16263361067565346	-1.6750945062788356	1.4552561125630648	0.22412392050731458	-1.6265571606039295	1.7080735354357075	0.25740044507214666	-1.5389632313825086	1.5956339582741308	0.2656243496079356	-1.7394788197439486	1.353533719308011	0.3662800712478067	-1.7190243113715111	1.0542867251131416	0.400196180528236	-1.6287298909183323	0.8574557141455437	0.46779041024257584	-1.7057512850733465	1.3326908043213095	0.13907302639586622	-1.7003315291865881	1.042573136096956	0.11368765454045701	-1.6127325250421853	0.86040105132771	0.06300134218631395
